# xmcd
#
# Track frame offsets:
#	150
#	13502
#	24790
#	38437
#	53172
#	66320
#	79382
#	90992
#	107950
#	119682
#	133047
#	149867
#
# Disc length: 2234 seconds
#
# Revision: 0
# Processed by: cddbd v1.4PL0 Copyright (c) Steve Scherf et al.
# Submitted via: dBpowerAMP V4.0
#
DISCID=a308b80c
DTITLE=Björn Skifs and Blåblus - Pinewood Rally
DYEAR=1973
DGENRE=Blues
TTITLE0=Pinewood Rally
TTITLE1=Never My Love
TTITLE2=(I Washed My Hands In) Muddy Water
TTITLE3=Lonely Sunday Afternoon
TTITLE4=Hooked On A Feeling
TTITLE5=Half Breed
TTITLE6=Destiny
TTITLE7=Something's Burning
TTITLE8=Working In A Coalmine
TTITLE9=Silly Milly
TTITLE10=Always Something There To Remind Me
TTITLE11=A Song For You
EXTD=
EXTT0=
EXTT1=
EXTT2=
EXTT3=
EXTT4=
EXTT5=
EXTT6=
EXTT7=
EXTT8=
EXTT9=
EXTT10=
EXTT11=
PLAYORDER=
